<svg id="Calque_1" data-name="Calque 1" xmlns="http://www.w3.org/2000/svg" viewBox="0 0 259.76 250.55"><defs><style>.cls-1{fill:#fff;}</style></defs><path class="cls-1" d="M129.8,24.25c-21.73,0-39.34,17.42-39.34,38.84s17.61,38.84,39.34,38.84a39.08,39.08,0,0,0,39.31-38.84C169.11,41.66,151.52,24.25,129.8,24.25Zm.06,47.42a8.58,8.58,0,1,1,8.69-8.58A8.58,8.58,0,0,1,129.86,71.67Z" transform="translate(0 -24.25)"/><path class="cls-1" d="M157.64,179l1.58-.76c1.56-.79,9.32-5,7.79-10.41-1.19-4.11-6.47-5.79-6.47-5.79s-32.76-9.69-53.11-16.23C86.35,139,85.75,124.19,85.56,121.49a24.56,24.56,0,0,1,13.17-24l1-.48.37.59-.7.36c-1.08.54-7.33,4-6.42,8.47.84,4.35,6.33,5.83,6.33,5.83s32.76,9.69,53.15,16.23c21.08,6.76,21.68,21.61,21.88,24.31,1.27,18.07-12.32,25.06-14.54,26.08-.2.08-1.6.76-1.6.76Z" transform="translate(0 -24.25)"/><path class="cls-1" d="M91.46,274.74H89.13V256.9h6a6.92,6.92,0,0,1,2.59.44,5.45,5.45,0,0,1,1.83,1.15,4.59,4.59,0,0,1,1.09,1.72,5.88,5.88,0,0,1,.36,2,5.29,5.29,0,0,1-.41,2.11,5.21,5.21,0,0,1-1.21,1.73,5.68,5.68,0,0,1-2,1.18,7.77,7.77,0,0,1-2.75.44,11.65,11.65,0,0,1-3.11-.41Zm0-8.48a4.43,4.43,0,0,0,1.2.26,14.13,14.13,0,0,0,1.46.07,5,5,0,0,0,2-.38,3.9,3.9,0,0,0,1.35-1,3.86,3.86,0,0,0,.78-1.36,4.7,4.7,0,0,0,.24-1.49,4.56,4.56,0,0,0-.27-1.55,4.43,4.43,0,0,0-.8-1.4,4.1,4.1,0,0,0-1.36-1,4.37,4.37,0,0,0-1.89-.37H91.46Z" transform="translate(0 -24.25)"/><path class="cls-1" d="M108.27,269.5,106,274.75h-1.17l7.57-17.84h1.24L122,274.75h-2.48l-2.45-5.25Zm4.27-9.71h-.1l-3.67,8.6h7.8Z" transform="translate(0 -24.25)"/><path class="cls-1" d="M134.12,256.91a7,7,0,0,1,2.75.47,4.87,4.87,0,0,1,1.75,1.14,4.27,4.27,0,0,1,.92,1.49,4.44,4.44,0,0,1,.26,1.48,5.07,5.07,0,0,1-.24,1.55,4.46,4.46,0,0,1-2.21,2.59,5.16,5.16,0,0,1-2.07.53v.1l.25.12a1.93,1.93,0,0,1,.52.38,7.61,7.61,0,0,1,.55.72c.23.34.53.81.91,1.42s.92,1.43,1.62,2.44a8.86,8.86,0,0,0,.67.92,5.62,5.62,0,0,0,.68.7,3.2,3.2,0,0,0,.76.44,2.91,2.91,0,0,0,.92.15h.5v.92a1.89,1.89,0,0,1-.7.25,7.09,7.09,0,0,1-.92,0,3.44,3.44,0,0,1-2.25-.73,5,5,0,0,1-.78-.82c-.24-.32-.49-.67-.74-1.05l-2-2.94-.74-1.19a4,4,0,0,0-.71-.78,2.42,2.42,0,0,0-.85-.42,5.06,5.06,0,0,0-1.17-.13H130.7v8.05h-2.29V256.91Zm-3.42,8.67h2.61a4.11,4.11,0,0,0,3.08-1.27,3.71,3.71,0,0,0,.78-1.25,3.6,3.6,0,0,0,.27-1.37,3.7,3.7,0,0,0-.28-1.47,3.32,3.32,0,0,0-.86-1.17,3.89,3.89,0,0,0-1.32-.77,5.05,5.05,0,0,0-1.73-.27H130.7Z" transform="translate(0 -24.25)"/><path class="cls-1" d="M151.42,256.9v17.84h-2.33V256.9Z" transform="translate(0 -24.25)"/><path class="cls-1" d="M159.47,270.11a5.91,5.91,0,0,0,.19,1,3.34,3.34,0,0,0,.67,1.17,4,4,0,0,0,1.44,1,6.66,6.66,0,0,0,2.5.4,5.77,5.77,0,0,0,3.12-.74,2.55,2.55,0,0,0,1.17-2.34,2.78,2.78,0,0,0-.73-2,6.36,6.36,0,0,0-1.83-1.3,21,21,0,0,0-2.44-.91,14.32,14.32,0,0,1-2.43-1,6.09,6.09,0,0,1-1.83-1.48,3.5,3.5,0,0,1-.74-2.33,4.05,4.05,0,0,1,1.69-3.41,5.76,5.76,0,0,1,1.83-.85,7.66,7.66,0,0,1,2.18-.31,8.73,8.73,0,0,1,2.09.26,6.53,6.53,0,0,1,1.83.77,4.79,4.79,0,0,1,1.31,1.23,3.81,3.81,0,0,1,.67,1.64h-1.69a2.75,2.75,0,0,0-1.33-2.13,5.16,5.16,0,0,0-2.75-.68,5.76,5.76,0,0,0-1.7.23,3.92,3.92,0,0,0-1.39.6,2.58,2.58,0,0,0-.76.91,2.41,2.41,0,0,0-.26,1.11,2.12,2.12,0,0,0,.77,1.71,8.36,8.36,0,0,0,1.91,1.13,26,26,0,0,0,2.51.91,15.43,15.43,0,0,1,2.5,1.1,6.69,6.69,0,0,1,1.92,1.63,3.87,3.87,0,0,1,.77,2.5,4.42,4.42,0,0,1-.45,2,4.32,4.32,0,0,1-1.26,1.55,5.8,5.8,0,0,1-2,1,9,9,0,0,1-2.59.34,9.51,9.51,0,0,1-2.6-.33,6.81,6.81,0,0,1-2.06-.92,4.64,4.64,0,0,1-1.4-1.46,4.1,4.1,0,0,1-.55-1.93Z" transform="translate(0 -24.25)"/><path class="cls-1" d="M216,268.71H197.87a1,1,0,0,1-.19-1.93H216a1,1,0,1,1,.19,1.93A.6.6,0,0,1,216,268.71Z" transform="translate(0 -24.25)"/><path class="cls-1" d="M61.93,268.71H43.85a1,1,0,0,1,0-1.93H61.93a1,1,0,0,1,.87,1.06A1,1,0,0,1,61.93,268.71Z" transform="translate(0 -24.25)"/><path class="cls-1" d="M59,244.87a16.21,16.21,0,1,1,16.29-16.12A16.22,16.22,0,0,1,59,244.87Zm0-27c-7.26,0-10.53,6.32-10.53,10.79s3.3,10.78,10.53,10.78,10.52-6.23,10.52-10.67C69.51,223.82,66,217.88,59,217.88Z" transform="translate(0 -24.25)"/><path class="cls-1" d="M25,222.22a10.42,10.42,0,0,0-8.24-4.13,11.16,11.16,0,0,0-7.28,2.69,10.79,10.79,0,0,0-3.62,7.82,10.62,10.62,0,0,0,3,7.21A11.36,11.36,0,0,0,17,239.32a10.69,10.69,0,0,0,9.17-5.59H13v-5.46H33.53v.67c0,9.07-7.74,15.93-16.72,15.93S0,237.89,0,228.77s7.7-16.3,16.73-16.3c6.41,0,12.83,3.74,15.23,9.71Z" transform="translate(0 -24.25)"/><path class="cls-1" d="M90.61,239.05V230.8h2.65a9,9,0,0,1,4.31.65,3.78,3.78,0,0,1,.59,6.5,8.64,8.64,0,0,1-5,1.13Zm-6.09,5.82h8.25c3.16-.08,6.5-.26,9.16-2.13a9.44,9.44,0,0,0,4-7.72,7.85,7.85,0,0,0-5.59-7.85,6.67,6.67,0,0,0,3.59-6.2,8.37,8.37,0,0,0-4.58-7.27c-2.75-1.37-5.78-1.22-8.75-1.22H84.52ZM90.61,225v-6.63h1.1c1.29,0,2.85-.22,4,.3a3.11,3.11,0,0,1,2,2.85,3.29,3.29,0,0,1-1.84,3,10.69,10.69,0,0,1-4.13.49Z" transform="translate(0 -24.25)"/><path class="cls-1" d="M119.32,212.47H137v5.83H125.41v7.47h11.06v5.82H125.41V239H137v5.83H119.32Z" transform="translate(0 -24.25)"/><path class="cls-1" d="M150.44,212.47h6.08v26.58h10v5.82H150.44Z" transform="translate(0 -24.25)"/><path class="cls-1" d="M180,212.47h5.82v32.4H180Z" transform="translate(0 -24.25)"/><path class="cls-1" d="M199.35,212.47h6.86l13.67,23.66V212.47H226v32.39h-6.75l-13.75-23.58v23.58h-6.07Z" transform="translate(0 -24.25)"/><path class="cls-1" d="M245.5,235.37c0,2.48,2,3.91,4.37,3.91a4,4,0,0,0,4.1-3.82v-.09c0-3.41-2.88-4.42-5.5-5.25-2.09-.69-3.87-1.26-5.44-2.85a8.82,8.82,0,0,1-2.48-6,9,9,0,0,1,9.27-8.81c4.85,0,9.26,3.95,9.17,8.81h-6a3.39,3.39,0,0,0-3.51-3.22,3,3,0,0,0-3.11,2.91,2.17,2.17,0,0,0,0,.36c-.07,2.27,2.09,3.16,4,3.79,2.22.76,4.33,1.38,6.13,2.85a8.41,8.41,0,0,1,3.32,7.07,10,10,0,0,1-10.15,9.83h-.06c-5.36,0-10.19-4.07-10.19-9.5Z" transform="translate(0 -24.25)"/></svg>