{
    "asset" : {
        "generator" : "Khronos glTF Blender I/O v1.8.19",
        "version" : "2.0"
    },
    "scene" : 0,
    "scenes" : [
        {
            "name" : "Scene",
            "nodes" : [
                0,
                1,
                2,
                3,
                4,
                5
            ]
        }
    ],
    "nodes" : [
        {
            "mesh" : 0,
            "name" : "train",
            "scale" : [
                0.7899162173271179,
                0.2933650016784668,
                0.2933650016784668
            ],
            "translation" : [
                -6.3016252517700195,
                0.4409874677658081,
                -4.6145853996276855
            ]
        },
        {
            "mesh" : 1,
            "name" : "rails",
            "scale" : [
                6.85056734085083,
                0.07549191266298294,
                0.09007606655359268
            ],
            "translation" : [
                -1.5282325744628906,
                0.02596914768218994,
                -4.208010673522949
            ]
        },
        {
            "mesh" : 2,
            "name" : "church",
            "rotation" : [
                -0.645737886428833,
                0.6457378268241882,
                -0.28813645243644714,
                0.28813648223876953
            ],
            "scale" : [
                0.25052565336227417,
                0.25052565336227417,
                0.25052565336227417
            ],
            "translation" : [
                4.010802268981934,
                1.4241752624511719,
                2.860914945602417
            ]
        },
        {
            "mesh" : 3,
            "name" : "ground",
            "scale" : [
                8.63452434539795,
                3.5718820095062256,
                5.7721476554870605
            ],
            "translation" : [
                -0.14583885669708252,
                0.02596914768218994,
                0.03168189525604248
            ]
        },
        {
            "mesh" : 4,
            "name" : "trees",
            "scale" : [
                0.07657837122678757,
                0.5111318230628967,
                0.07657837122678757
            ],
            "translation" : [
                -2.7926578521728516,
                0.3270155191421509,
                0.24719157814979553
            ]
        },
        {
            "name" : "CameraPath"
        }
    ],
    "meshes" : [
        {
            "name" : "Cube.002",
            "primitives" : [
                {
                    "attributes" : {
                        "POSITION" : 0,
                        "NORMAL" : 1,
                        "TEXCOORD_0" : 2
                    },
                    "indices" : 3
                }
            ]
        },
        {
            "name" : "Cube.004",
            "primitives" : [
                {
                    "attributes" : {
                        "POSITION" : 4,
                        "NORMAL" : 5,
                        "TEXCOORD_0" : 6
                    },
                    "indices" : 7
                }
            ]
        },
        {
            "name" : "Cylinder.022",
            "primitives" : [
                {
                    "attributes" : {
                        "POSITION" : 8,
                        "NORMAL" : 9,
                        "TEXCOORD_0" : 10
                    },
                    "indices" : 11
                }
            ]
        },
        {
            "name" : "Plane",
            "primitives" : [
                {
                    "attributes" : {
                        "POSITION" : 12,
                        "NORMAL" : 13,
                        "TEXCOORD_0" : 14
                    },
                    "indices" : 15
                }
            ]
        },
        {
            "name" : "Cylinder.026",
            "primitives" : [
                {
                    "attributes" : {
                        "POSITION" : 16,
                        "NORMAL" : 17,
                        "TEXCOORD_0" : 18
                    },
                    "indices" : 19
                }
            ]
        }
    ],
    "accessors" : [
        {
            "bufferView" : 0,
            "componentType" : 5126,
            "count" : 29175,
            "max" : [
                0.9933817982673645,
                3.3074493408203125,
                1.265539526939392
            ],
            "min" : [
                -0.9950138926506042,
                -1.2551289796829224,
                -1.0000001192092896
            ],
            "type" : "VEC3"
        },
        {
            "bufferView" : 1,
            "componentType" : 5126,
            "count" : 29175,
            "type" : "VEC3"
        },
        {
            "bufferView" : 2,
            "componentType" : 5126,
            "count" : 29175,
            "type" : "VEC2"
        },
        {
            "bufferView" : 3,
            "componentType" : 5123,
            "count" : 59352,
            "type" : "SCALAR"
        },
        {
            "bufferView" : 4,
            "componentType" : 5126,
            "count" : 432,
            "max" : [
                1,
                1,
                2.3471035957336426
            ],
            "min" : [
                -1,
                -1,
                -11.213746070861816
            ],
            "type" : "VEC3"
        },
        {
            "bufferView" : 5,
            "componentType" : 5126,
            "count" : 432,
            "type" : "VEC3"
        },
        {
            "bufferView" : 6,
            "componentType" : 5126,
            "count" : 432,
            "type" : "VEC2"
        },
        {
            "bufferView" : 7,
            "componentType" : 5123,
            "count" : 648,
            "type" : "SCALAR"
        },
        {
            "bufferView" : 8,
            "componentType" : 5126,
            "count" : 615,
            "max" : [
                5.912285804748535,
                1,
                2.403125524520874
            ],
            "min" : [
                -5.651297569274902,
                -8.799016952514648,
                -2.2704994678497314
            ],
            "type" : "VEC3"
        },
        {
            "bufferView" : 9,
            "componentType" : 5126,
            "count" : 615,
            "type" : "VEC3"
        },
        {
            "bufferView" : 10,
            "componentType" : 5126,
            "count" : 615,
            "type" : "VEC2"
        },
        {
            "bufferView" : 11,
            "componentType" : 5123,
            "count" : 1068,
            "type" : "SCALAR"
        },
        {
            "bufferView" : 12,
            "componentType" : 5126,
            "count" : 4,
            "max" : [
                1,
                0,
                1
            ],
            "min" : [
                -1,
                0,
                -1
            ],
            "type" : "VEC3"
        },
        {
            "bufferView" : 13,
            "componentType" : 5126,
            "count" : 4,
            "type" : "VEC3"
        },
        {
            "bufferView" : 14,
            "componentType" : 5126,
            "count" : 4,
            "type" : "VEC2"
        },
        {
            "bufferView" : 15,
            "componentType" : 5123,
            "count" : 6,
            "type" : "SCALAR"
        },
        {
            "bufferView" : 16,
            "componentType" : 5126,
            "count" : 4878,
            "max" : [
                12.077051162719727,
                2.2170584201812744,
                19.443389892578125
            ],
            "min" : [
                -15.403142929077148,
                -1,
                -6.702249050140381
            ],
            "type" : "VEC3"
        },
        {
            "bufferView" : 17,
            "componentType" : 5126,
            "count" : 4878,
            "type" : "VEC3"
        },
        {
            "bufferView" : 18,
            "componentType" : 5126,
            "count" : 4878,
            "type" : "VEC2"
        },
        {
            "bufferView" : 19,
            "componentType" : 5123,
            "count" : 18396,
            "type" : "SCALAR"
        }
    ],
    "bufferViews" : [
        {
            "buffer" : 0,
            "byteLength" : 350100,
            "byteOffset" : 0
        },
        {
            "buffer" : 0,
            "byteLength" : 350100,
            "byteOffset" : 350100
        },
        {
            "buffer" : 0,
            "byteLength" : 233400,
            "byteOffset" : 700200
        },
        {
            "buffer" : 0,
            "byteLength" : 118704,
            "byteOffset" : 933600
        },
        {
            "buffer" : 0,
            "byteLength" : 5184,
            "byteOffset" : 1052304
        },
        {
            "buffer" : 0,
            "byteLength" : 5184,
            "byteOffset" : 1057488
        },
        {
            "buffer" : 0,
            "byteLength" : 3456,
            "byteOffset" : 1062672
        },
        {
            "buffer" : 0,
            "byteLength" : 1296,
            "byteOffset" : 1066128
        },
        {
            "buffer" : 0,
            "byteLength" : 7380,
            "byteOffset" : 1067424
        },
        {
            "buffer" : 0,
            "byteLength" : 7380,
            "byteOffset" : 1074804
        },
        {
            "buffer" : 0,
            "byteLength" : 4920,
            "byteOffset" : 1082184
        },
        {
            "buffer" : 0,
            "byteLength" : 2136,
            "byteOffset" : 1087104
        },
        {
            "buffer" : 0,
            "byteLength" : 48,
            "byteOffset" : 1089240
        },
        {
            "buffer" : 0,
            "byteLength" : 48,
            "byteOffset" : 1089288
        },
        {
            "buffer" : 0,
            "byteLength" : 32,
            "byteOffset" : 1089336
        },
        {
            "buffer" : 0,
            "byteLength" : 12,
            "byteOffset" : 1089368
        },
        {
            "buffer" : 0,
            "byteLength" : 58536,
            "byteOffset" : 1089380
        },
        {
            "buffer" : 0,
            "byteLength" : 58536,
            "byteOffset" : 1147916
        },
        {
            "buffer" : 0,
            "byteLength" : 39024,
            "byteOffset" : 1206452
        },
        {
            "buffer" : 0,
            "byteLength" : 36792,
            "byteOffset" : 1245476
        }
    ],
    "buffers" : [
        {
            "byteLength" : 1282268,
            "uri" : "data:application/octet-stream;base64,"
        }
    ]
}
